HIERARCHY
ROOT Hips
{
     OFFSET 30.69530 97.31770 4.30526
     CHANNELS 6 Xposition Yposition Zposition Zrotation Xrotation Yrotation
     JOINT Spine
     {
          OFFSET -0.00000 11.89050 -0.00000
          CHANNELS 3 Zrotation Xrotation Yrotation
          JOINT Spine1
          {
               OFFSET -0.00000 25.65740 0.12766
               CHANNELS 3 Zrotation Xrotation Yrotation
               JOINT HEad
               {
                    OFFSET -0.00000 8.73416 0.01134
                    CHANNELS 3 Zrotation Xrotation Yrotation
                    End Site
                    {
                         OFFSET -0.29000 12.77420 2.51395
                    }
               }
               JOINT LeftShoulder1
               {
                    OFFSET 8.99000 -0.36225 -0.22000
                    CHANNELS 3 Zrotation Xrotation Yrotation
                    JOINT LeftArm
                    {
                         OFFSET 10.28270 -0.00338 0.32212
                         CHANNELS 3 Zrotation Xrotation Yrotation
                         JOINT LeftForeArm
                         {
                              OFFSET 32.76690 0.09914 -1.42434
                              CHANNELS 3 Zrotation Xrotation Yrotation
                              JOINT LeftHand
                              {
                                   OFFSET 27.56430 0.08536 1.02216
                                   CHANNELS 3 Zrotation Xrotation Yrotation
                                   End Site
                                   {
                                        OFFSET 16.74430 -0.60000 1.50291
                                   }
                              }
                         }
                    }
               }
               JOINT RightShoulder
               {
                    OFFSET -8.99000 -0.36225 -0.22000
                    CHANNELS 3 Zrotation Xrotation Yrotation
                    JOINT RightArm
                    {
                         OFFSET -10.28270 -0.00338 0.32212
                         CHANNELS 3 Zrotation Xrotation Yrotation
                         JOINT RightForeArm
                         {
                              OFFSET -32.89710 0.09914 -1.42434
                              CHANNELS 3 Zrotation Xrotation Yrotation
                              JOINT RightHand
                              {
                                   OFFSET -27.49210 0.08536 1.02216
                                   CHANNELS 3 Zrotation Xrotation Yrotation
                                   End Site
                                   {
                                        OFFSET -16.63120 -0.60000 1.50291
                                   }
                              }
                         }
                    }
               }
          }
     }
     JOINT LeftUpLeg
     {
          OFFSET 8.94580 -8.66707 0.10165
          CHANNELS 3 Zrotation Xrotation Yrotation
          JOINT LeftLeg
          {
               OFFSET 0.00000 -44.42270 1.37270
               CHANNELS 3 Zrotation Xrotation Yrotation
               JOINT LeftFoot
               {
                    OFFSET -0.25355 -42.09240 -1.46059
                    CHANNELS 3 Zrotation Xrotation Yrotation
                    JOINT LeftToes
                    {
                         OFFSET -0.04000 -4.41509 8.49910
                         CHANNELS 3 Zrotation Xrotation Yrotation
                         End Site
                         {
                              OFFSET 0.08000 -0.04745 9.77979
                         }
                    }
               }
          }
     }
     JOINT RightUpLeg
     {
          OFFSET -8.94580 -8.66707 0.10165
          CHANNELS 3 Zrotation Xrotation Yrotation
          JOINT RightLeg
          {
               OFFSET -0.00000 -44.42270 1.37270
               CHANNELS 3 Zrotation Xrotation Yrotation
               JOINT RightFoot
               {
                    OFFSET 0.25355 -42.09240 -1.46059
                    CHANNELS 3 Zrotation Xrotation Yrotation
                    JOINT RightToes
                    {
                         OFFSET 0.04000 -4.41509 8.49910
                         CHANNELS 3 Zrotation Xrotation Yrotation
                         End Site
                         {
                              OFFSET -0.08000 -0.13745 9.77979
                         }
                    }
               }
          }
     }
}
MOTION
Frames: 15
Frame Time: 0.01667
12.95130 92.59440 -14.65270 4.79204 -9.29841 23.76570 4.36478 9.21714 -1.33374 -0.86516 19.53660 -2.37671 -5.86002 -7.51921 17.87200 -0.00000 -0.00000 0.00000 -132.26199 -60.55060 -106.31900 -31.86520 59.80530 -77.24590 20.96970 7.01684 -11.88400 17.46670 0.67563 0.90825 87.24880 -9.15513 77.67940 13.17210 34.22990 100.18000 15.67260 11.68320 8.21931 14.55450 -18.99760 -15.32400 -23.78740 18.39380 70.38170 -18.39730 -4.95698 0.45368 9.59116 4.74416 -44.56360 -20.63330 6.93053 6.28200 44.21240 10.28000 -66.58680 -37.94050 -9.33347 -0.76594 9.32948 -47.78880 15.73470 
12.44400 92.59400 -14.99090 5.35109 -9.24934 25.69120 4.16346 9.20636 -1.13713 -1.24526 19.47000 -1.89664 -4.59394 -7.62854 18.32630 -0.00000 -0.00000 0.00000 -127.93900 -60.28810 -102.68000 -29.59260 57.57100 -78.90250 20.32220 7.10350 -11.92760 17.80510 0.82064 1.58625 87.00270 -9.78004 77.39390 12.77330 34.24330 100.74700 15.95320 11.68870 8.04537 14.82270 -18.75280 -16.88410 -24.51660 19.09660 74.41510 -18.13860 -3.37936 0.68987 9.67728 3.27575 -45.98590 -20.78970 7.30761 6.23502 44.58600 9.71561 -67.46650 -37.11860 -9.55786 -0.83036 9.08818 -47.34140 15.39110 
11.74080 93.05640 -15.37980 6.11603 -9.03585 27.92310 3.03642 9.27815 -1.18794 -1.32257 19.32460 -1.94324 -5.17685 -6.07981 17.99610 -0.00000 -0.00000 0.00000 -125.29900 -60.79650 -100.33600 -27.73180 56.30860 -80.46650 20.20890 7.16134 -11.68990 17.31700 0.84432 1.78221 86.77160 -9.05758 76.86110 11.82700 33.56230 101.44600 16.07130 11.59620 7.32534 15.34140 -17.21730 -17.73130 -25.01870 17.38000 75.29290 -17.45460 -3.15839 0.69621 10.39810 5.90585 -47.01430 -20.81440 8.07620 6.21646 44.39590 8.27350 -67.14850 -36.72720 -9.64935 -0.85450 7.80486 -45.39170 12.96170 
11.11540 93.44340 -15.69780 7.12644 -8.74276 29.93750 1.64184 9.55318 -1.15833 -1.79370 19.61000 -1.88259 -4.30622 -7.23137 18.99800 -0.00000 -0.00000 0.00000 -122.99200 -60.95580 -98.68280 -27.73930 54.71790 -80.35420 20.23140 7.09889 -12.03010 17.40040 0.77461 1.41648 87.00630 -8.45928 77.01900 12.90350 33.71060 100.65000 16.79440 11.69350 7.47833 15.57450 -15.48060 -17.62800 -25.13350 15.74780 75.53270 -16.32200 -2.63353 0.72265 10.88020 7.12816 -47.99350 -21.51360 9.43061 5.74772 44.42790 6.32711 -67.24400 -37.57540 -8.96798 -0.63127 7.76568 -45.94190 12.39110 
10.78550 93.54030 -15.91030 7.23665 -8.72730 31.53410 1.52104 9.43369 -1.00858 -2.00005 19.32960 -1.50078 -4.41208 -6.73185 19.84740 -0.00000 -0.00000 0.00000 -125.29100 -61.71950 -100.54700 -27.96850 56.00600 -80.28400 20.75040 7.01073 -12.09670 18.21280 0.93626 2.08816 85.93440 -8.60799 76.52840 13.95220 33.65840 99.91470 16.58520 11.70980 7.73046 16.44060 -14.83920 -18.93440 -25.92900 15.65300 76.58790 -15.59450 -2.46471 0.71213 10.88670 5.58346 -49.19530 -20.95120 9.49324 5.22430 44.04040 6.61926 -67.35200 -37.30810 -9.01446 -0.64404 7.22557 -45.14620 11.22840 
10.62360 93.36470 -16.10790 7.44216 -8.50214 33.12160 1.58524 9.16351 -0.81817 -2.17075 18.79650 -1.14285 -4.62045 -6.29740 20.25620 -0.00000 -0.00000 0.00000 -122.97100 -61.90140 -98.29260 -27.54930 55.12950 -80.56860 20.29590 7.06284 -12.18220 18.75930 0.94051 2.01650 85.23530 -8.58053 76.12690 13.65520 33.62680 100.07700 16.73600 11.79190 8.16525 16.63330 -15.26810 -20.84010 -26.91850 17.14180 78.25860 -15.59690 -2.52078 0.70491 10.31300 4.57776 -47.67100 -21.39790 9.81725 6.29034 44.98730 5.22880 -68.70510 -37.12970 -9.81290 -0.91932 6.92602 -43.88660 11.17670 
10.06310 93.90720 -16.29850 8.21446 -7.66259 35.25030 0.03241 9.19000 -0.73745 -2.29148 18.58270 -1.14001 -3.91505 -6.27747 20.24710 -0.00000 -0.00000 0.00000 -124.06300 -62.22070 -99.10730 -27.90830 55.54360 -80.31260 20.41740 7.01804 -12.33450 18.06130 0.67686 0.84273 85.57960 -7.47425 76.03850 13.14770 33.64220 100.59100 16.66610 11.64790 7.26549 17.06570 -13.28840 -20.09030 -26.62940 13.97730 76.90410 -13.56590 -1.53864 0.72281 10.50680 4.95636 -48.16770 -21.95890 11.08790 5.73710 44.65500 2.68942 -68.10430 -38.67920 -9.05227 -0.67617 6.39471 -43.73650 9.40798 
9.98941 93.83420 -16.47640 8.37736 -7.72695 36.48850 0.05352 9.28089 -0.47406 -2.48193 18.76550 -0.59075 -3.55023 -7.09134 20.64140 -0.00000 -0.00000 0.00000 -124.64700 -62.04280 -99.72110 -28.51420 55.50360 -79.97940 19.96520 7.14532 -11.98710 17.43790 0.59209 0.49045 86.18900 -6.82211 76.36720 12.41810 33.45290 100.79200 16.36050 11.70710 7.87192 17.38540 -13.14970 -20.97340 -26.92130 15.30920 78.65550 -12.49650 -1.29022 0.69050 10.47350 2.72814 -49.92540 -21.97380 11.41730 6.07941 45.00470 2.32279 -68.13340 -38.73070 -9.48385 -0.83377 5.56498 -42.29700 7.36588 
9.72025 94.07470 -16.60990 8.97898 -7.15474 37.96040 -1.36309 9.36568 -0.27001 -2.98006 18.76570 -0.34233 -3.54274 -7.54797 21.15990 -0.00000 -0.00000 0.00000 -126.60400 -62.19950 -101.42200 -28.76930 56.18750 -79.82800 19.80600 7.18735 -11.87700 17.88530 0.60197 0.49344 86.35220 -6.83667 76.73430 12.78980 33.95560 100.64200 16.48770 11.63780 7.31893 17.72460 -11.90980 -20.84470 -27.14220 13.89640 78.85180 -11.98360 -1.30975 0.65972 11.00330 5.63269 -49.61720 -22.98860 12.37720 7.56634 45.64710 -0.55062 -68.75150 -38.63080 -10.00110 -1.01968 5.36346 -40.83340 7.59692 
9.68190 94.10470 -16.87330 9.07656 -7.06067 39.90660 -1.14105 9.23255 -0.36177 -2.91947 18.52470 -0.49391 -4.10853 -7.62028 21.07830 -0.00000 -0.00000 0.00000 -124.63000 -62.44830 -99.88610 -29.05090 55.24890 -79.66040 19.99710 7.09545 -12.24990 17.85300 0.70610 1.01214 86.29050 -7.15340 76.59920 13.00370 33.85260 100.40900 16.82580 11.66040 7.24083 18.16640 -11.68360 -21.20110 -27.32860 14.04560 79.66050 -10.90890 -0.24376 0.69447 10.91180 3.82190 -50.80300 -22.65540 12.72470 6.13133 45.13760 -0.04304 -68.65310 -39.48250 -9.15079 -0.72387 5.26634 -42.09690 6.35633 
9.46036 94.32770 -16.95970 9.72765 -6.21157 41.74610 -2.83389 9.25765 -0.33022 -3.11357 18.38810 -0.78797 -3.74945 -8.88868 21.68240 -0.00000 -0.00000 0.00000 -128.45700 -63.15440 -102.96300 -30.29490 56.92470 -78.82180 20.06770 7.19567 -11.60850 17.10220 0.71362 1.14859 86.55800 -6.60283 76.73650 12.38750 33.31390 100.44700 16.50550 11.65250 7.40489 17.77810 -10.83450 -21.08540 -26.78110 12.89180 79.96530 -9.17817 0.90442 0.66633 10.51240 2.09361 -50.69870 -23.57630 13.16730 6.03582 45.36250 -0.82255 -68.79130 -39.97930 -8.91632 -0.64318 5.07528 -42.14050 5.59525 
9.48257 94.23280 -17.07380 9.76952 -5.72841 43.18790 -3.64103 9.20042 -0.14477 -3.20708 18.20300 -0.64929 -3.82224 -8.58050 21.65790 -0.00000 -0.00000 0.00000 -128.18500 -62.88520 -102.79800 -29.83560 56.71650 -78.87730 19.77940 7.10563 -12.38020 17.23050 0.70156 1.06974 87.24640 -6.89283 77.02850 12.90220 34.01820 99.95430 16.46940 11.63460 7.30971 18.04050 -10.96880 -21.19980 -27.27490 13.43670 80.26340 -9.91530 0.45906 0.68604 10.56290 3.41420 -49.69220 -23.99420 12.95940 7.07750 45.72080 -1.31092 -69.75120 -39.80360 -8.99314 -0.66969 5.11428 -42.26520 5.66897 
9.50628 94.33520 -17.28330 9.98363 -5.35150 44.83820 -4.11017 9.18620 -0.09990 -3.33714 18.13590 -0.65243 -4.34967 -8.52193 20.73830 -0.00000 -0.00000 0.00000 -127.10000 -63.01930 -102.21200 -29.69040 56.68710 -79.20240 20.69240 6.98137 -12.30920 16.85610 0.71218 1.17510 87.62200 -6.95936 77.09090 12.77130 33.62110 100.07100 16.85450 11.64630 7.12989 18.22670 -10.44200 -21.20690 -27.37310 12.91030 80.88630 -9.71002 1.27649 0.73550 10.78220 3.14731 -50.87580 -24.37660 12.97840 7.36748 45.90180 -1.23201 -69.57010 -38.80700 -8.51173 -0.48127 4.92005 -41.83750 5.17698 
9.59612 94.38380 -17.42310 10.62310 -4.42970 46.37480 -5.18701 9.13396 0.02169 -3.82529 17.94640 -0.59883 -4.68688 -8.33595 20.33210 -0.00000 -0.00000 0.00000 -125.30500 -62.41800 -100.57700 -28.91730 55.59530 -79.50660 19.66030 7.13848 -12.29140 16.52900 0.76109 1.47866 88.11380 -7.19945 77.14520 13.30620 33.74360 99.62990 16.90260 11.73050 7.64657 17.44680 -9.65147 -20.13190 -26.66640 12.18780 79.58200 -7.28934 1.88206 0.58050 10.84770 1.38847 -52.94010 -25.46810 13.01330 6.94001 45.98400 -0.85730 -69.69250 -38.86020 -9.53506 -0.85482 4.95456 -41.29500 5.64408 
9.77946 94.37480 -17.67340 10.89390 -4.33362 48.06100 -5.36347 9.11896 0.05687 -3.93344 17.91410 -0.60841 -3.54871 -9.03208 20.16670 -0.00000 -0.00000 0.00000 -115.13800 -61.04540 -92.29000 -23.77620 51.18960 -83.77910 19.37430 7.31202 -11.50350 17.01600 0.76345 1.41662 87.75120 -7.45159 77.26410 13.42170 34.03140 99.57340 16.54400 11.64350 7.31863 17.55180 -9.36335 -20.96880 -27.10480 12.14780 78.18700 -8.34882 3.05777 0.74717 10.55030 1.65764 -51.30280 -25.67600 13.68360 7.46175 45.89450 -1.55061 -70.63880 -39.84940 -8.88973 -0.63159 4.94932 -42.62880 4.83003 
